<svg width="23" height="23" viewBox="0 0 23 23" fill="none" xmlns="http://www.w3.org/2000/svg">
<path d="M8.9182 15.7167H6.90176V9.0735H8.9182V15.7167ZM7.90998 8.22122C7.1828 8.22122 6.81858 7.88005 6.81858 7.199C6.81632 7.06232 6.84332 6.92678 6.89772 6.8017C6.95211 6.67663 7.0326 6.56499 7.13365 6.4745C7.3438 6.27571 7.62267 6.16876 7.90998 6.17678C8.63716 6.17678 9.00138 6.51922 9.00138 7.20028C9.00138 7.88133 8.63842 8.22122 7.90998 8.22122ZM16.3967 15.7167H14.3386V12.0111C14.3386 11.0464 14.0009 10.5634 13.3292 10.5634C12.7973 10.5634 12.4482 10.833 12.2781 11.3722C12.2239 11.4578 12.1949 11.6291 12.1949 11.8833V15.7167H10.1369V11.2023C10.1369 10.1801 10.1218 9.47089 10.0953 9.0735H11.8597L11.9857 9.96667C12.4482 9.25622 13.12 8.90228 14.0437 8.90228C14.7457 8.90228 15.3116 9.15017 15.7451 9.64722C16.1812 10.1443 16.3979 10.8611 16.3979 11.799V15.7167H16.3967ZM11.3972 23C5.14242 23 0.0546875 17.8416 0.0546875 11.5C0.0546875 5.15839 5.14242 0 11.3972 0C17.6519 0 22.7396 5.15839 22.7396 11.5C22.7396 17.8416 17.6519 23 11.3972 23ZM11.462 2.10286C6.59857 2.10286 2.12874 6.56906 2.12874 11.5C2.12874 16.4309 6.53376 21.0286 11.3972 21.0286C16.2606 21.0286 20.7952 16.4309 20.7952 11.5C20.7952 6.56906 16.3254 2.10286 11.462 2.10286Z" fill="white"/>
</svg>
