<svg width="12" height="12" viewBox="0 0 12 12" fill="none" xmlns="http://www.w3.org/2000/svg">
<path d="M0.883398 8.23184C1.16016 8.08965 2.53887 7.41426 2.79531 7.32285C3.05176 7.22637 3.23965 7.18066 3.425 7.46504C3.61289 7.74688 4.14609 8.37402 4.31367 8.56445C4.47617 8.75234 4.64121 8.7752 4.91797 8.63555C6.56328 7.81289 7.64238 7.16797 8.72656 5.30684C9.01348 4.81172 8.43965 4.84727 7.90391 3.77832C7.8125 3.59043 7.8582 3.43047 7.9293 3.28828C8.00039 3.14609 8.55898 1.76992 8.79258 1.20879C9.01855 0.66289 9.25215 0.739062 9.42227 0.728906C9.58477 0.71875 9.77012 0.71875 9.95801 0.71875C10.1459 0.71875 10.448 0.789844 10.7045 1.0666C10.9609 1.34844 11.6846 2.02637 11.6846 3.40254C11.6846 4.77871 10.6816 6.11172 10.5445 6.29961C10.4023 6.4875 8.57168 9.31094 5.76094 10.5271C3.98359 11.2939 3.28789 11.36 2.39922 11.2279C1.8584 11.1467 0.74375 10.5525 0.512695 9.89492C0.281641 9.23984 0.28164 8.67871 0.350195 8.56191C0.418749 8.4375 0.60664 8.36641 0.883398 8.23184Z" fill="white"/>
</svg>
