<svg width="23" height="23" viewBox="0 0 23 23" fill="none" xmlns="http://www.w3.org/2000/svg">
<path d="M0.893433 7.04375C1.47356 5.66529 2.30524 4.42801 3.36539 3.36529C4.42553 2.30513 5.6628 1.47087 7.0438 0.893304C8.45562 0.300335 9.9547 0 11.5 0H11.5513C13.1069 0.00770089 14.6137 0.315737 16.0306 0.92154C17.3988 1.50681 18.6258 2.3385 19.6757 3.39866C20.7256 4.45882 21.5495 5.69096 22.1194 7.06429C22.7098 8.48638 23.0076 9.99833 22.9999 11.5539C22.9922 13.3354 22.566 15.104 21.7677 16.6853V20.5871C21.7677 21.2391 21.2389 21.7679 20.5869 21.7679H16.6826C15.1014 22.5662 13.3328 22.9923 11.5513 23H11.4974C9.95984 23 8.46845 22.7022 7.06434 22.1195C5.69103 21.5471 4.45634 20.7257 3.39876 19.6758C2.33862 18.6259 1.50437 17.3989 0.921671 16.0307C0.315876 14.6137 0.00784302 13.1069 0.000141144 11.5513C-0.00755882 9.98806 0.295338 8.47098 0.893433 7.04375ZM4.77207 18.2871C6.57149 20.0685 8.95873 21.0491 11.5 21.0491H11.5436C13.0915 21.0414 14.6291 20.6564 15.987 19.9325L16.2026 19.817H19.8169V16.2027L19.9324 15.9871C20.6562 14.6291 21.0413 13.0915 21.049 11.5436C21.0593 8.98438 20.0813 6.5817 18.287 4.77199C16.4952 2.96228 14.1003 1.96116 11.5411 1.95089H11.4974C10.214 1.95089 8.969 2.19989 7.79591 2.69275C6.65106 3.17277 5.62429 3.86328 4.74127 4.74632C3.86081 5.62679 3.16774 6.65614 2.68772 7.801C2.18974 8.98694 1.94074 10.2448 1.94588 11.5436C1.96128 14.1003 2.96495 16.4953 4.77207 18.2871Z" fill="white"/>
</svg>
