<svg width="51" height="59" viewBox="0 0 51 59" fill="none" xmlns="http://www.w3.org/2000/svg">
<path d="M16.9592 15.7694L33.6256 24.939L42.0144 20.2957L25.3304 10.9565L8.64648 20.5413L25.3304 29.5296" stroke="white" stroke-width="3" stroke-miterlimit="10"/>
<path d="M25.1668 29.436L42.0144 38.8688L25.3304 48.8571L8.64648 39.1144L16.6494 34.5179L33.4269 43.6232" stroke="white" stroke-width="3" stroke-miterlimit="10"/>
<path d="M25.3296 58.7573L17.5664 54.2778L19.6592 52.6169L25.3296 55.8918L48.1751 42.693V16.307L40.9613 12.1374L33.1923 16.962L30.7487 15.5526L40.9204 9.24268L50.6596 14.8742V44.1316L25.3296 58.7573Z" fill="white"/>
<path d="M10.1249 49.9737L0 44.1316V14.8742L25.3299 0.242676L33.7011 5.07893L31.5148 6.68127L25.3299 3.11401L2.48447 16.307V42.693L10.0197 47.0438L17.023 42.3245L19.4081 43.7105L10.1249 49.9737Z" fill="white"/>
</svg>
