<svg width="13" height="13" viewBox="0 0 13 13" fill="none" xmlns="http://www.w3.org/2000/svg">
<path fill-rule="evenodd" clip-rule="evenodd" d="M6.5 12.5C8.0913 12.5 9.61742 11.8679 10.7426 10.7426C11.8679 9.61742 12.5 8.0913 12.5 6.5C12.5 4.9087 11.8679 3.38258 10.7426 2.25736C9.61742 1.13214 8.0913 0.5 6.5 0.5C4.9087 0.5 3.38258 1.13214 2.25736 2.25736C1.13214 3.38258 0.5 4.9087 0.5 6.5C0.5 8.0913 1.13214 9.61742 2.25736 10.7426C3.38258 11.8679 4.9087 12.5 6.5 12.5ZM9.28025 5.53025C9.41687 5.3888 9.49246 5.19935 9.49076 5.0027C9.48905 4.80605 9.41017 4.61794 9.27111 4.47889C9.13206 4.33983 8.94395 4.26095 8.7473 4.25924C8.55065 4.25754 8.3612 4.33313 8.21975 4.46975L5.75 6.9395L4.78025 5.96975C4.6388 5.83313 4.44935 5.75754 4.2527 5.75924C4.05605 5.76095 3.86794 5.83983 3.72889 5.97889C3.58983 6.11794 3.51095 6.30605 3.50924 6.5027C3.50754 6.69935 3.58313 6.8888 3.71975 7.03025L5.21975 8.53025C5.3604 8.67085 5.55113 8.74984 5.75 8.74984C5.94887 8.74984 6.1396 8.67085 6.28025 8.53025L9.28025 5.53025Z" fill="white"/>
</svg>
