<svg width="30" height="8" viewBox="0 0 30 8" fill="none" xmlns="http://www.w3.org/2000/svg">
<path d="M1.12012 3.5C0.843975 3.5 0.620117 3.72386 0.620117 4C0.620117 4.27614 0.843975 4.5 1.12012 4.5V3.5ZM29.234 4.35355C29.4292 4.15829 29.4292 3.84171 29.234 3.64645L26.052 0.464466C25.8567 0.269204 25.5401 0.269204 25.3449 0.464466C25.1496 0.659728 25.1496 0.976311 25.3449 1.17157L28.1733 4L25.3449 6.82843C25.1496 7.02369 25.1496 7.34027 25.3449 7.53553C25.5401 7.7308 25.8567 7.7308 26.052 7.53553L29.234 4.35355ZM1.12012 4.5H28.8804V3.5H1.12012V4.5Z" fill="#1D1D1B"/>
</svg>
